<?xml version="1.0" standalone="no"?><!DOCTYPE svg PUBLIC "-//W3C//DTD SVG 1.1//EN" "http://www.w3.org/Graphics/SVG/1.1/DTD/svg11.dtd"><svg t="1730729669507" class="icon" viewBox="0 0 1024 1024" version="1.1" xmlns="http://www.w3.org/2000/svg" p-id="2187" xmlns:xlink="http://www.w3.org/1999/xlink" width="50" height="50"><path d="M806.76636445 173.47824197h-57.73640692c-13.72210569-82.85044939-85.69843358-146.15337086-172.30304395-146.15337086h-124.27567408c-86.60461037 0-158.7103921 63.30292148-172.30304395 146.15337086h-57.73640691c-103.9514232 0-188.61422617 84.66280297-188.61422617 188.61422618v449.20478024c0 103.9514232 84.66280297 188.61422617 188.61422617 188.61422618h584.35457581c103.9514232 0 188.61422617-84.66280297 188.61422616-188.61422618v-449.20478024c0-104.08087703-84.66280297-188.61422617-188.61422616-188.61422618zM452.4512395 82.60165531h124.27567408c56.05350717 0 103.04524642 38.70669431 115.99062914 90.87658666H336.59006419c12.81592889-52.16989235 59.93712197-90.87658667 115.86117531-90.87658666z m487.65256692 728.56613926c0 73.52977383-59.80766815 133.33744197-133.33744197 133.33744196H222.41178864c-73.52977383 0-133.33744197-59.80766815-133.33744197-133.33744196v-328.81272099H225.90704197v13.98101333c0 43.62593975 35.47034864 79.09628839 79.0962884 79.0962884h45.56774716c43.62593975 0 79.09628839-35.47034864 79.09628839-79.0962884v-13.98101333h169.32560593v13.98101333c0 43.62593975 35.47034864 79.09628839 79.0962884 79.0962884h45.56774716c43.62593975 0 79.09628839-35.47034864 79.0962884-79.0962884v-13.98101333h136.8326953v328.81272099zM281.31328 496.33608691v-83.23881086c0-13.20429037 10.74466765-23.81950419 23.81950419-23.8195042h45.56774717c13.20429037 0 23.81950419 10.74466765 23.81950419 23.8195042v83.23881086c0 13.20429037-10.74466765 23.81950419-23.81950419 23.8195042h-45.56774717c-13.07483653 0-23.81950419-10.61521383-23.81950419-23.8195042z m373.2153837 0v-83.23881086c0-13.20429037 10.74466765-23.81950419 23.8195042-23.8195042h45.56774716c13.20429037 0 23.81950419 10.74466765 23.81950419 23.8195042v83.23881086c0 13.20429037-10.74466765 23.81950419-23.81950419 23.8195042h-45.56774716c-13.07483653 0-23.81950419-10.61521383-23.8195042-23.8195042z m285.57514272-69.25779752H803.14165728v-13.98101334c0-43.62593975-35.47034864-79.09628839-79.09628839-79.0962884h-45.56774716c-43.62593975 0-79.09628839 35.47034864-79.0962884 79.0962884v13.98101334H429.92627358v-13.98101334c0-43.62593975-35.47034864-79.09628839-79.0962884-79.0962884h-45.56774715c-43.62593975 0-79.09628839 35.47034864-79.0962884 79.0962884v13.98101334H89.07434667v-64.98582124c0-73.52977383 59.80766815-133.33744197 133.33744197-133.33744198h55.40623803v0.9061768h473.54209975v-0.9061768h55.40623803c73.52977383 0 133.33744197 59.80766815 133.33744197 133.33744198v64.98582124z" fill="#000000" p-id="2188"></path><path d="M657.63555555 616.33978469v44.01430123H467.98569876c-4.66033778-8.80286025-13.8515595-14.88719013-24.59622715-14.88719011H219.56380445c-15.27555161 0-27.70311902 12.42756741-27.70311902 27.70311901v129.84218865c0 15.27555161 12.42756741 27.70311902 27.70311902 27.703119H443.38947161c10.09739852 0 18.90025876-5.43706075 23.69005036-13.46319802h190.42657976v87.2518795c0 15.27555161 12.42756741 27.70311902 27.70311902 27.70311902h14.88719011c81.94427259 0 148.48353975-66.66872098 148.48353975-148.48353977V616.33978469c0-15.27555161-12.42756741-27.70311902-27.703119-27.703119H685.20922075c-15.14609778 0-27.57366518 12.42756741-27.5736652 27.703119z m55.2767842 71.58796642v-44.01430124h80.5202805v139.55122568c0 48.02736987-34.43471803 86.34570272-80.5202805 92.4300326v-86.47515654c0-15.27555161-12.42756741-27.70311902-27.703119-27.70311902H443.51892543c-10.09739852 0-18.90025876 5.43706075-23.69005037 13.46319802H247.26692347v-74.56540444h171.6557748c4.66033778 8.80286025 13.8515595 14.88719013 24.59622716 14.88719013h241.81974914c15.14609778 0.12945383 27.57366518-12.29811358 27.57366518-27.57366519z" fill="#000000" p-id="2189"></path></svg>