<?xml version="1.0" standalone="no"?><!DOCTYPE svg PUBLIC "-//W3C//DTD SVG 1.1//EN" "http://www.w3.org/Graphics/SVG/1.1/DTD/svg11.dtd"><svg t="1730729009797" class="icon" viewBox="0 0 1024 1024" version="1.1" xmlns="http://www.w3.org/2000/svg" p-id="2360" xmlns:xlink="http://www.w3.org/1999/xlink" width="50" height="50"><path d="M1015.62544 938.670149a127.166403 127.166403 0 0 1-240.174777 0h-15.693238a127.166403 127.166403 0 0 1-240.174776 0h-15.693239a127.166403 127.166403 0 0 1-240.174776 0H255.868015a138.126083 138.126083 0 0 1-127.934008 85.289339 127.59285 127.59285 0 0 1-120.087388-85.289339H0V469.578789h2.174878a511.309583 511.309583 0 0 1 1019.207592 0H1023.472059v469.09136h-7.846619zM938.182721 499.0889l-1.876366-22.473741a426.020245 426.020245 0 0 0-849.140651 0L85.289338 499.174189v402.736256l2.899838 8.187776A42.644669 42.644669 0 0 0 127.934007 938.670149a54.329308 54.329308 0 0 0 47.548806-28.571928L195.653742 853.380811H324.099485l20.170929 56.71741a41.91971 41.91971 0 0 0 79.489663 0L443.931006 853.380811h136.036494l20.170929 56.71741a41.91971 41.91971 0 0 0 79.489663 0L699.79902 853.380811h136.036495l20.170928 56.71741a41.91971 41.91971 0 0 0 79.489664 0l2.899837-8.187776v-402.821545zM682.314706 469.578789a85.289338 85.289338 0 1 1 85.289338-85.289338 85.289338 85.289338 0 0 1-85.289338 85.289338z m-170.578677 127.934007c-47.122359 0-85.289338-19.104812-85.289338-42.644669s38.166979-42.644669 85.289338-42.644669 85.289338 19.104812 85.289339 42.644669-38.166979 42.644669-85.289339 42.644669z m-170.578676-127.934007a85.289338 85.289338 0 1 1 85.289338-85.289338 85.289338 85.289338 0 0 1-85.289338 85.289338z" fill="#000000" p-id="2361"></path></svg>