<?xml version="1.0" standalone="no"?><!DOCTYPE svg PUBLIC "-//W3C//DTD SVG 1.1//EN"
        "http://www.w3.org/Graphics/SVG/1.1/DTD/svg11.dtd">
<svg t="1734519463289" class="icon" viewBox="0 0 1024 1024" version="1.1" xmlns="http://www.w3.org/2000/svg"
     p-id="10800"
     width="50" height="50">
    <path d="M44.315 377.969L466.071 565.765c20.162 9.392 32.928 13.055 45.54 13.055 12.657 0 26.054-3.651 47.807-13.032L981.414 377.882c13.548-6.261 22.363-22.589 23.013-42.614 0.688-21.449-8.463-40.517-23.354-48.598L559.445 66.181c-16.762-9.843-30.489-14.236-44.535-14.236-13.892 0-28.924 4.371-48.794 14.206l-422.434 220.984c-15.029 9.742-24.183 29.134-23.329 49.394 0.782 18.38 9.669 33.843 23.962 41.44z m35.417-45.512l433.066-230.715L945.817 332.457 512.771 513.198 79.732 332.457zM944.115 726.75L512.771 923.759l-432.12-197.322c-2.534-0.907-10.036-4.352-22.287-10.227a868.544 868.544 0 0 1-34.46-17.366l-7.782-4.195 0.566 8.826c0.837 12.96 5.279 56.14 27.622 68.113L466.071 959.384c20.15 9.408 32.917 13.071 45.535 13.071 12.646 0 26.048-3.663 47.812-13.049l421.99-187.896c22.861-10.563 27.051-62.613 27.454-68.506l0.582-8.523-27.526 13.654c-27.324 13.575-35.568 17.675-37.803 18.615z"
          p-id="10801"></path>
    <path d="M44.315 574.753l421.75 187.796c20.128 9.414 32.9 13.083 45.541 13.083 12.679 0 26.076-3.663 47.817-13.061l421.985-187.896c22.861-10.557 27.051-62.61 27.454-68.514l0.582-8.526-25.022 12.427c-30.988 15.418-38.123 18.929-40.262 19.848L512.771 726.93l-432.115-197.339c-2.419-0.862-9.493-4.11-22.256-10.198a846.525 846.525 0 0 1-34.49-17.396l-7.788-4.187 0.566 8.821c0.832 12.957 5.264 56.171 27.627 68.122z"
          p-id="10802"></path>
</svg>