<?xml version="1.0" standalone="no"?><!DOCTYPE svg PUBLIC "-//W3C//DTD SVG 1.1//EN" "http://www.w3.org/Graphics/SVG/1.1/DTD/svg11.dtd"><svg t="1730729435866" class="icon" viewBox="0 0 1024 1024" version="1.1" xmlns="http://www.w3.org/2000/svg" p-id="2339" xmlns:xlink="http://www.w3.org/1999/xlink" width="50" height="50"><path d="M849.5 962H62V174.5h168.75V62h731.25v731.25h-112.5v168.75z m56.25-618.75H287v393.75h618.75V343.25z m0-225H287v168.75h618.75V118.25z m-84.375 56.25a28.125 28.125 0 1 1 0 56.25 28.125 28.125 0 0 1 0-56.25z m-112.5 0a28.125 28.125 0 1 1 0 56.25 28.125 28.125 0 0 1 0-56.25zM230.75 793.25V230.75H118.25v675h675v-112.5H230.75z" fill="#000000" p-id="2340"></path></svg>