<?xml version="1.0" standalone="no"?><!DOCTYPE svg PUBLIC "-//W3C//DTD SVG 1.1//EN" "http://www.w3.org/Graphics/SVG/1.1/DTD/svg11.dtd"><svg t="1724748649334" class="icon" viewBox="0 0 1024 1024" version="1.1" xmlns="http://www.w3.org/2000/svg" p-id="12698" xmlns:xlink="http://www.w3.org/1999/xlink" width="50" height="50"><path d="M896 1024H0V128h192V0h832v832h-128v192z m64-704H256v448h704V320z m0-256H256v192h704V64z m-96 64a32 32 0 1 1 0 64 32 32 0 0 1 0-64z m-128 0a32 32 0 1 1 0 64 32 32 0 0 1 0-64zM192 832V192H64v768h768v-128H192z" fill="#D6D8DC" p-id="12699"></path></svg>