<?xml version="1.0" standalone="no"?><!DOCTYPE svg PUBLIC "-//W3C//DTD SVG 1.1//EN" "http://www.w3.org/Graphics/SVG/1.1/DTD/svg11.dtd"><svg t="1724745093539" class="icon" viewBox="0 0 1024 1024" version="1.1" xmlns="http://www.w3.org/2000/svg" p-id="16933" xmlns:xlink="http://www.w3.org/1999/xlink" width="50" height="50"><path d="M512 1024C229.888 1024 0 794.112 0 512S229.888 0 512 0s512 229.888 512 512c0 104.96-44.544 180.736-132.096 225.28-52.736 26.624-109.056 29.696-159.232 31.744-60.928 3.072-99.328 6.144-117.76 37.376-13.312 22.528-3.584 41.984 12.8 71.68 15.36 27.136 36.352 65.024 7.168 100.352-33.28 40.448-82.944 45.568-122.88 45.568z m0-970.24c-252.928 0-458.24 205.824-458.24 458.24s205.824 458.24 458.24 458.24c41.984 0 66.56-7.68 81.408-26.112 5.12-6.144 2.56-13.312-12.288-40.448-16.384-29.696-41.472-74.752-12.288-124.928 33.792-57.856 98.304-60.928 161.28-63.488 46.592-2.048 94.72-4.608 137.216-26.112 69.12-35.328 102.912-93.184 102.912-177.664 0-252.416-205.312-457.728-458.24-457.728z" fill="#333333" p-id="16934"></path><path d="M214.016 455.68m-70.144 0a70.144 70.144 0 1 0 140.288 0 70.144 70.144 0 1 0-140.288 0Z" fill="#333333" p-id="16935"></path><path d="M384 244.736m-70.144 0a70.144 70.144 0 1 0 140.288 0 70.144 70.144 0 1 0-140.288 0Z" fill="#333333" p-id="16936"></path><path d="M645.12 229.376m-70.144 0a70.144 70.144 0 1 0 140.288 0 70.144 70.144 0 1 0-140.288 0Z" fill="#333333" p-id="16937"></path><path d="M804.352 426.496m-70.144 0a70.144 70.144 0 1 0 140.288 0 70.144 70.144 0 1 0-140.288 0Z" fill="#333333" p-id="16938"></path></svg>