<?xml version="1.0" standalone="no"?><!DOCTYPE svg PUBLIC "-//W3C//DTD SVG 1.1//EN" "http://www.w3.org/Graphics/SVG/1.1/DTD/svg11.dtd"><svg t="1734519387452" class="icon" viewBox="0 0 1024 1024" version="1.1" xmlns="http://www.w3.org/2000/svg" p-id="7891" xmlns:xlink="http://www.w3.org/1999/xlink" width="50" height="50"><path d="M109.952 25.6h804.096C977.664 25.6 1024 79.808 1024 141.248v728.704c0 61.44-46.336 115.648-109.952 115.648H109.952C46.336 985.6 0 931.392 0 869.952V141.248C0 79.808 46.336 25.6 109.952 25.6z m0 76.8c-18.304 0-33.152 17.408-33.152 38.848v728.704c0 21.44 14.848 38.848 33.152 38.848h804.096c18.304 0 33.152-17.408 33.152-38.848V141.248c0-21.44-14.848-38.848-33.152-38.848H109.952zM341.12 570.56a38.4 38.4 0 1 1-45.248 62.08L169.344 540.352a38.4 38.4 0 0 1-1.152-61.184l126.464-99.712a38.4 38.4 0 1 1 47.552 60.288L255.488 508.16l85.568 62.464z m340.288 0l85.568-62.464-86.656-68.352a38.4 38.4 0 0 1 47.552-60.288l126.4 99.712a38.4 38.4 0 0 1-1.152 61.184l-126.4 92.288a38.4 38.4 0 1 1-45.312-62.08zM496.064 687.36a38.4 38.4 0 1 1-73.536-22.144l110.72-367.68a38.4 38.4 0 0 1 73.536 22.144l-110.72 367.68z" fill="#767676" p-id="7892"></path></svg>