<?xml version="1.0" standalone="no"?><!DOCTYPE svg PUBLIC "-//W3C//DTD SVG 1.1//EN" "http://www.w3.org/Graphics/SVG/1.1/DTD/svg11.dtd"><svg t="1724748769115" class="icon" viewBox="0 0 1024 1024" version="1.1" xmlns="http://www.w3.org/2000/svg" p-id="16254" xmlns:xlink="http://www.w3.org/1999/xlink" width="50" height="50"><path d="M853.3 170.7H170.7C76.8 170.7 0 247.5 0 341.3v512C0 947.2 76.8 1024 170.7 1024h682.7c93.9 0 170.7-76.8 170.7-170.7v-512c0-93.9-76.8-170.7-170.7-170.7z m85.3 682.7c0 46.9-38.4 85.3-85.3 85.3H170.7c-46.9 0-85.3-38.4-85.3-85.3V341.3c0-46.9 38.4-85.3 85.3-85.3h682.7c46.9 0 85.3 38.4 85.3 85.3v512z" fill="#303133" p-id="16255"></path><path d="M341.3 426.7H256c-46.9 0-85.3 38.4-85.3 85.3v170.7c0 46.9 38.4 85.3 85.3 85.3h85.3c46.9 0 85.3-38.4 85.3-85.3V512c0-46.9-38.4-85.3-85.3-85.3z m0 256H256V512h85.3v170.7z m426.7-256h-85.3c-46.9 0-85.3 38.4-85.3 85.3v170.7c0 46.9 38.4 85.3 85.3 85.3H768c46.9 0 85.3-38.4 85.3-85.3V512c0-46.9-38.4-85.3-85.3-85.3z m0 256h-85.3V512H768v170.7zM341.3 85.3h341.3v85.3h85.3V85.3c0-46.9-38.4-85.3-85.3-85.3H341.3C294.4 0 256 38.4 256 85.3v85.3h85.3V85.3z" fill="#303133" p-id="16256"></path><path d="M12.8 597.3c0-25.6 17.1-42.7 42.7-42.7H192c25.6 0 42.7 17.1 42.7 42.7S217.6 640 192 640H55.5c-25.6 0-42.7-21.3-42.7-42.7z m768 0c0-25.6 17.1-42.7 42.7-42.7H960c25.6 0 42.7 17.1 42.7 42.7S985.6 640 960 640H823.5c-21.3 0-42.7-21.3-42.7-42.7z m-422.4 0c0-25.6 17.1-42.7 42.7-42.7H623c25.6 0 42.7 17.1 42.7 42.7S648.6 640 623 640H401.1c-21.3 0-42.7-21.3-42.7-42.7z" fill="#303133" p-id="16257"></path></svg>