<?xml version="1.0" standalone="no"?><!DOCTYPE svg PUBLIC "-//W3C//DTD SVG 1.1//EN" "http://www.w3.org/Graphics/SVG/1.1/DTD/svg11.dtd"><svg t="1730726640702" class="icon" viewBox="0 0 1024 1024" version="1.1" xmlns="http://www.w3.org/2000/svg" p-id="2254" xmlns:xlink="http://www.w3.org/1999/xlink" width="50" height="50"><path d="M512 1023.653099c-282.132682 0-511.653099-229.520417-511.653099-511.653099s229.520417-511.653099 511.653099-511.653099 511.653099 229.520417 511.653099 511.653099S794.132682 1023.653099 512 1023.653099zM512 39.395242c-260.582877 0-472.604758 212.010625-472.604758 472.604758s212.022904 472.604758 472.604758 472.604758 472.604758-212.010625 472.604758-472.604758S772.581854 39.395242 512 39.395242z" fill="#000000" p-id="2255"></path><path d="M512 705.177698c-114.068965 0-349.59619-66.069765-349.59619-270.284843 0-10.786671 8.749268-19.523659 19.523659-19.523659 10.775414 0 19.523659 8.736988 19.523659 19.523659 0 173.010379 213.262128 231.236502 310.548872 231.236502 120.075773 0 310.548872-62.779835 310.548872-231.236502 0-10.786671 8.749268-19.523659 19.523659-19.523659 10.775414 0 19.523659 8.736988 19.523659 19.523659C861.59619 631.801527 647.166469 705.177698 512 705.177698z" fill="#000000" p-id="2256"></path><path d="M350.396415 379.01522c-45.484937 0-82.482573-36.997636-82.482573-82.482573s36.997636-82.482573 82.482573-82.482573 82.482573 36.997636 82.482573 82.482573S395.880329 379.01522 350.396415 379.01522zM350.396415 253.098415c-23.957645 0-43.434232 19.487843-43.434232 43.434232s19.476587 43.434232 43.434232 43.434232 43.434232-19.487843 43.434232-43.434232S374.35406 253.098415 350.396415 253.098415z" fill="#000000" p-id="2257"></path><path d="M673.603585 379.01522c-45.484937 0-82.482573-36.997636-82.482573-82.482573s36.997636-82.482573 82.482573-82.482573 82.482573 36.997636 82.482573 82.482573S719.087499 379.01522 673.603585 379.01522zM673.603585 253.098415c-23.957645 0-43.434232 19.487843-43.434232 43.434232s19.476587 43.434232 43.434232 43.434232c23.957645 0 43.434232-19.487843 43.434232-43.434232S697.561229 253.098415 673.603585 253.098415z" fill="#000000" p-id="2258"></path><path d="M617.319697 885.542578c-37.188994 0-67.154469-11.764951-89.252767-35.091216-53.732785-56.700373-37.546128-160.709215-36.830837-165.107385 1.740644-10.632151 11.704576-17.974373 22.384823-16.127306 10.655687 1.704828 17.879206 11.729136 16.186657 22.372543-0.143263 0.89437-13.778818 89.491197 26.675546 132.055618 17.545608 18.463514 42.862203 25.662473 77.643358 21.895683 62.028729-6.675026 103.484909-30.382984 119.908974-68.536956 16.830317-39.155788 4.934382-91.327008-31.824823-139.55236-6.531763-8.582469-4.862751-20.835538 3.695159-27.367301 8.606005-6.531763 20.810978-4.88731 27.390837 3.695159 45.413306 59.597353 59.096956 126.381385 36.615942 178.660052-22.00313 51.122331-75.831083 83.769892-151.591557 91.934852C631.074979 885.149629 624.066355 885.542578 617.319697 885.542578z" fill="#000000" p-id="2259"></path><path d="M637.46348 797.458427c-7.175423 0-14.065344-3.957125-17.497513-10.79895-4.815679-9.654894-0.905626-21.383006 8.749268-26.198685 7.461949-3.742231 7.604188-38.451754-2.908236-73.638137-3.075035-10.32209 2.789533-21.204951 13.111622-24.303522 10.250458-3.075035 21.192671 2.753717 24.315802 13.075807 4.839215 16.163121 26.842345 97.846492-17.068747 119.79027C643.376143 796.790208 640.396275 797.458427 637.46348 797.458427z" fill="#000000" p-id="2260"></path></svg>