<?xml version="1.0" standalone="no"?><!DOCTYPE svg PUBLIC "-//W3C//DTD SVG 1.1//EN" "http://www.w3.org/Graphics/SVG/1.1/DTD/svg11.dtd"><svg t="1724744988999" class="icon" viewBox="0 0 1024 1024" version="1.1" xmlns="http://www.w3.org/2000/svg" p-id="10618" xmlns:xlink="http://www.w3.org/1999/xlink" width="50" height="50"><path d="M308.48 800H152.32a32 32 0 0 0 0 64h156.16a32 32 0 0 0 0-64z m-156.16-256h156.16a32 32 0 0 0 0-64H152.32a32 32 0 0 0 0 64zM920.96 0H103.04A103.04 103.04 0 0 0 0 103.04V918.4A105.6 105.6 0 0 0 105.6 1024h812.8a105.6 105.6 0 0 0 105.6-105.6v-172.8a70.624 70.624 0 0 0 0-11.136v0.256V103.04A103.04 103.04 0 0 0 920.96 0zM960 423.04v177.92A39.68 39.68 0 0 1 920.992 640H103.04A39.68 39.68 0 0 1 64 600.992V423.04A39.68 39.68 0 0 1 103.008 384H920.96A39.68 39.68 0 0 1 960 423.008v0.032z m0 495.36a41.6 41.6 0 0 1-41.6 41.6H105.6A41.6 41.6 0 0 1 64 918.4v-172.8A41.6 41.6 0 0 1 105.6 704h812.8a41.6 41.6 0 0 1 41.6 41.6z m0-640a39.68 39.68 0 0 1-39.008 39.04H103.04A39.712 39.712 0 0 1 64 281.088V103.008a39.68 39.68 0 0 1 39.008-39.04H920.96A39.68 39.68 0 0 1 960 102.976v177.952zM308.48 160H152.32a32 32 0 0 0 0 64h156.16a32 32 0 0 0 0-64z" p-id="10619"></path></svg>