<?xml version="1.0" standalone="no"?><!DOCTYPE svg PUBLIC "-//W3C//DTD SVG 1.1//EN" "http://www.w3.org/Graphics/SVG/1.1/DTD/svg11.dtd"><svg t="1734316978838" class="icon" viewBox="0 0 1024 1024" version="1.1" xmlns="http://www.w3.org/2000/svg" p-id="4290" xmlns:xlink="http://www.w3.org/1999/xlink" width="50" height="50"><path d="M498.266719 794.482653 193.422779 479.648175l78.138638-63.594387 176.275749 140.374074c72.242348-87.230714 232.603639-260.313747 453.846532-397.963781l18.619056 43.606147C717.22457 391.518998 550.963918 658.184407 498.266719 794.482653L498.266719 794.482653 498.266719 794.482653 498.266719 794.482653zM883.151623 450.716238c3.28072 19.945261 5.009084 40.413432 5.009084 61.283762 0 207.754694-168.405501 376.161219-376.161219 376.161219-207.737298 0-376.161219-168.405501-376.161219-376.161219 0-207.746508 168.423921-376.152009 376.161219-376.152009 50.15019 0 98.014314 9.841136 141.759631 27.656897L653.759119 88.26323C608.234273 73.011874 560.683281 65.290005 511.999488 65.290005c-60.270688 0-118.779244 11.822257-173.901679 35.134195-53.203736 22.509666-100.981902 54.704926-141.987828 95.701642-40.971134 41.006949-73.183789 88.765673-95.693456 141.978618C77.103564 393.211547 65.290517 451.729312 65.290517 512c0 60.278875 11.813047 118.78743 35.126009 173.894516 22.509666 53.211922 54.722322 100.971669 95.693456 141.977595 41.005926 41.006949 88.784092 73.201186 141.987828 95.702666 55.122435 23.311939 113.63099 35.134195 173.901679 35.134195s118.779244-11.822257 173.901679-35.134195c53.203736-22.50148 100.963483-54.695716 141.970432-95.702666 41.005926-41.005926 73.200162-88.765673 95.693456-141.969409 23.330358-55.114249 35.143405-113.63099 35.143405-173.901679 0-20.652366-1.39579-41.10314-4.1536-61.283762L883.151623 450.717262 883.151623 450.716238 883.151623 450.716238zM883.151623 450.716238" fill="#ffffff" p-id="4291"></path></svg>